# xmcd CD database file
#
# Track frame offsets:
#	150
#	29556
#	54753
#	75362
#	83922
#	107687
#	128841
#	145370
#	171691
#	201513
#	221055
#	241705
#
# Disc length: 3480 seconds
#
# Revision: 0
# Processed by: cddbd v1.5.2PL0 Copyright (c) Steve Scherf et al.
# Submitted via: WildFire CD Ripper 
#
DISCID=a80d960c
DTITLE=Esperanza Spalding - Radio Music Society
DYEAR=2012
DGENRE=Jazz
TTITLE0=Radio Song
TTITLE1=Cinnamon Tree
TTITLE2=Crowned and Kissed
TTITLE3=Land of the Free
TTITLE4=Black Gold
TTITLE5=I Can`t Help It
TTITLE6=Hold on Me
TTITLE7=Vague Suspicions
TTITLE8=Endangered Species
TTITLE9=Let Her
TTITLE10=City of Roses
TTITLE11=Smile Like That
EXTD=YEAR: 2012
EXTT0=
EXTT1=
EXTT2=
EXTT3=
EXTT4=
EXTT5=
EXTT6=
EXTT7=
EXTT8=
EXTT9=
EXTT10=
EXTT11=
PLAYORDER=
